<svg viewBox="0 0 967.378 1130.96" xmlns="http://www.w3.org/2000/svg" xmlns:xlink="http://www.w3.org/1999/xlink" width="967.378418" height="1130.957520" fill="none" customFrame="#000000">
	<g id="Group 1597880565">
		<path id="Vector 4780" d="M241.293 323.457L317.5 411.837L0.500488 486.457" stroke="rgb(32,32,39)" stroke-linecap="round" stroke-width="1.000000" />
		<path id="Vector" d="M259.592 267.356C259.592 258.461 295.786 0 295.786 0L398.397 231.725L567.373 14.8758L485.949 273.337L742.477 219.866L497.997 359.474L685.096 522.852L458.739 439.68L522.092 689.247L374.198 481.292L208.234 718.947L259.54 439.68L0 457.521L235.393 359.474L0 190.114L259.592 267.356Z" fill="rgb(188,236,48)" fill-rule="nonzero" transform="matrix(-0.287934,0.95765,-0.955466,-0.295101,967.378,212.162)" />
		<path id="Vector" d="M295.786 0L398.397 231.725L567.373 14.8758L485.949 273.337L742.477 219.866L497.997 359.474L685.096 522.852L458.739 439.68L522.092 689.247L374.198 481.292L208.234 718.947L259.54 439.68L0 457.521L235.393 359.474L0 190.114L259.592 267.356C259.592 258.461 295.786 0 295.786 0Z" fill-rule="nonzero" stroke="rgb(32,32,39)" stroke-linecap="round" stroke-width="1.000000" transform="matrix(-0.287934,0.95765,-0.955466,-0.295101,967.378,212.162)" />
		<path id="Vector 4781" d="M208.583 587.457L332.5 587.457L190.5 766.457" stroke="rgb(32,32,39)" stroke-linecap="round" stroke-width="1.000000" />
		<path id="Vector 4782" d="M324.5 791.502L438.261 712.457L544.382 1130.46" stroke="rgb(32,32,39)" stroke-linecap="round" stroke-width="1.000000" />
		<path id="Vector 4788" d="M402.659 801.457L346.5 860.222L426.5 927.457L402.659 801.457Z" fill="rgb(188,236,48)" fill-rule="evenodd" />
		<path id="Vector 4788" d="M402.659 801.457L426.5 927.457L346.5 860.222L402.659 801.457Z" fill-rule="evenodd" stroke="rgb(32,32,39)" stroke-linecap="round" stroke-width="1.000000" />
		<path id="Vector 4791" d="M432.5 996.457L466.5 1120.46" stroke="rgb(32,32,39)" stroke-linecap="round" stroke-width="1.000000" />
	</g>
</svg>
